<?xml version="1.0" standalone="no"?>
<!DOCTYPE svg PUBLIC "-//W3C//DTD SVG 20010904//EN"
 "http://www.w3.org/TR/2001/REC-SVG-20010904/DTD/svg10.dtd">
<svg version="1.0" xmlns="http://www.w3.org/2000/svg"
 width="550.000000pt" height="1270.000000pt" viewBox="0 0 550.000000 1270.000000"
 preserveAspectRatio="xMidYMid meet">

<g transform="translate(0.000000,1270.000000) scale(0.100000,-0.100000)"
fill="#000000" stroke="none">
<path d="M2390 12100 l0 -370 415 0 415 0 0 290 0 290 -210 0 -210 0 0 80 0
80 -205 0 -205 0 0 -370z m160 250 l0 -40 -40 0 -40 0 0 40 0 40 40 0 40 0 0
-40z m170 0 l0 -40 -40 0 -40 0 0 40 0 40 40 0 40 0 0 -40z m-170 -160 l0 -40
-40 0 -40 0 0 40 0 40 40 0 40 0 0 -40z m170 0 l0 -40 -40 0 -40 0 0 40 0 40
40 0 40 0 0 -40z m410 -165 l0 -205 -165 0 -165 0 0 40 0 40 40 0 40 0 0 40 0
40 -40 0 -40 0 0 45 0 45 40 0 40 0 0 40 0 40 -40 0 -40 0 0 40 0 40 165 0
165 0 0 -205z m-580 -5 l0 -40 -40 0 -40 0 0 40 0 40 40 0 40 0 0 -40z m170 0
l0 -40 -40 0 -40 0 0 40 0 40 40 0 40 0 0 -40z m-170 -160 l0 -40 -40 0 -40 0
0 40 0 40 40 0 40 0 0 -40z m170 0 l0 -40 -40 0 -40 0 0 40 0 40 40 0 40 0 0
-40z"/>
<path d="M2970 12100 l0 -40 40 0 40 0 0 40 0 40 -40 0 -40 0 0 -40z"/>
<path d="M2970 11940 l0 -40 40 0 40 0 0 40 0 40 -40 0 -40 0 0 -40z"/>
<path d="M3247 11583 c-4 -3 -7 -16 -7 -28 0 -17 -8 -24 -31 -29 -22 -4 -30
-11 -27 -23 2 -14 11 -17 36 -15 l32 4 0 -56 c0 -62 19 -91 54 -80 40 11 76
74 42 74 -7 0 -16 -9 -19 -21 -4 -13 -12 -20 -24 -17 -15 3 -18 13 -18 58 l0
54 38 9 c48 12 48 27 -2 27 -33 0 -40 4 -45 25 -6 25 -16 31 -29 18z"/>
<path d="M2732 11543 c2 -10 13 -19 26 -21 24 -4 29 7 10 26 -18 18 -40 15
-36 -5z"/>
<path d="M3382 11543 c2 -10 13 -19 26 -21 24 -4 29 7 10 26 -18 18 -40 15
-36 -5z"/>
<path d="M2098 11493 c-22 -25 -33 -100 -18 -118 19 -23 30 -8 30 39 0 58 19
74 66 57 45 -16 52 -9 18 18 -32 26 -75 27 -96 4z"/>
<path d="M2812 11492 c2 -11 15 -18 36 -20 17 -2 32 -6 32 -10 -1 -4 -18 -19
-40 -34 -58 -40 -46 -55 48 -60 112 -7 126 18 18 31 l-51 6 48 28 c68 40 57
54 -56 70 -32 5 -38 3 -35 -11z"/>
<path d="M1922 11484 c-15 -10 -22 -25 -22 -49 0 -49 24 -68 77 -62 83 9 111
70 51 107 -40 24 -76 25 -106 4z m89 -24 c40 -22 10 -60 -46 -60 -33 0 -43 25
-20 50 20 22 37 25 66 10z"/>
<path d="M2645 11480 c-17 -19 -19 -19 -31 -2 -17 23 -21 16 -25 -42 -5 -61
10 -69 42 -21 31 45 45 44 56 -2 4 -20 14 -38 22 -41 10 -3 12 5 6 39 -15 90
-34 109 -70 69z"/>
<path d="M3478 11484 c-32 -17 -37 -56 -12 -92 28 -40 119 -25 145 25 13 23
11 27 -19 54 -36 32 -72 36 -114 13z m92 -32 c21 -17 22 -19 5 -36 -24 -23
-78 -18 -84 8 -3 20 22 46 45 46 6 0 22 -8 34 -18z"/>
<path d="M3688 11480 c-15 -24 -28 -26 -28 -4 0 9 -6 14 -12 12 -8 -3 -14 -26
-16 -56 -4 -65 12 -68 51 -10 30 42 46 40 47 -7 0 -27 15 -49 28 -41 11 7 -4
93 -20 114 -15 18 -36 15 -50 -8z"/>
<path d="M2396 11464 c-28 -29 -32 -45 -16 -75 14 -25 54 -25 90 1 27 19 27
19 45 0 17 -18 55 -28 55 -14 0 3 -10 19 -22 34 -13 16 -31 40 -41 54 -25 36
-75 35 -111 0z m71 -27 c-21 -32 -44 -44 -58 -30 -15 15 3 41 36 53 29 11 38
1 22 -23z"/>
<path d="M3012 11467 c-59 -63 5 -129 72 -76 l27 21 23 -21 c23 -22 56 -28 56
-11 0 6 -7 13 -15 17 -9 3 -23 19 -32 36 -23 46 -38 57 -76 57 -22 0 -41 -8
-55 -23z m78 -12 c0 -20 -36 -55 -56 -55 -24 0 -13 43 16 57 33 17 40 16 40
-2z"/>
<path d="M2232 11457 c-40 -43 -21 -79 43 -79 l35 0 -6 -41 c-8 -54 -19 -65
-41 -44 -13 11 -23 13 -33 6 -13 -8 -10 -13 13 -34 48 -42 70 -30 82 45 4 25
14 62 22 82 8 21 12 46 8 55 -6 16 -9 15 -27 -9 -22 -31 -78 -40 -78 -14 0 15
21 26 52 26 31 0 15 25 -18 28 -21 2 -36 -4 -52 -21z"/>
<path d="M2752 11423 c3 -51 28 -75 28 -26 0 39 -10 73 -22 73 -5 0 -8 -21 -6
-47z"/>
<path d="M3394 11439 c3 -17 6 -40 6 -50 0 -11 7 -19 15 -19 16 0 19 19 9 69
-4 18 -13 31 -21 31 -12 0 -14 -7 -9 -31z"/>
<path d="M2435 10511 c-11 -5 -29 -19 -40 -31 -19 -21 -20 -39 -23 -289 -4
-290 1 -327 46 -357 25 -17 55 -19 352 -22 179 -2 345 0 369 3 31 5 53 16 73
37 l28 30 0 242 c0 207 -2 245 -16 265 -30 43 -70 51 -251 51 l-168 0 -36 40
-37 40 -138 -1 c-77 0 -148 -4 -159 -8z m723 -382 c2 -175 0 -218 -11 -228
-11 -8 -109 -11 -353 -9 l-339 3 -3 228 -2 227 352 -2 353 -3 3 -216z"/>
<path d="M2289 9685 c-63 -23 -99 -45 -99 -61 0 -9 23 -26 54 -40 74 -33 86
-50 51 -66 -22 -10 -35 -9 -71 4 -46 16 -65 9 -44 -17 20 -24 97 -30 137 -11
28 13 34 21 31 44 -2 21 -14 33 -50 52 -26 14 -50 29 -53 32 -8 8 81 49 98 45
7 -1 12 5 12 13 0 20 -22 22 -66 5z"/>
<path d="M3140 9672 c0 -24 -5 -31 -27 -37 -21 -5 -32 -2 -45 15 -11 14 -24
20 -34 16 -13 -5 -14 -9 -4 -21 7 -8 20 -15 30 -15 10 0 20 -8 23 -19 3 -14
11 -17 29 -14 24 5 26 2 32 -55 4 -33 13 -65 20 -71 24 -20 86 16 86 51 0 24
-12 23 -28 -2 -28 -45 -57 -10 -50 61 3 29 7 34 41 42 49 12 48 27 -2 27 -33
0 -40 4 -43 22 -5 34 -28 34 -28 0z"/>
<path d="M2924 9612 c-33 -22 -48 -124 -20 -135 18 -7 25 11 19 45 -3 14 0 36
7 48 12 22 20 23 78 5 33 -11 28 12 -8 30 -31 16 -59 19 -76 7z"/>
<path d="M2412 9588 c-35 -38 -45 -77 -27 -105 24 -37 58 -48 112 -37 64 12
73 38 10 29 -54 -8 -83 0 -97 26 -15 27 -4 42 22 28 45 -24 100 19 78 61 -15
28 -70 27 -98 -2z m68 -17 c0 -6 -5 -13 -10 -16 -15 -9 -43 3 -35 15 8 13 45
13 45 1z"/>
<path d="M2572 9587 c-13 -14 -22 -36 -22 -54 0 -25 6 -34 33 -46 45 -20 95
-28 103 -16 9 15 3 18 -52 32 -51 13 -67 35 -44 62 17 20 40 19 56 -2 12 -17
13 -17 19 0 18 45 -55 64 -93 24z"/>
<path d="M3282 9558 c3 -48 6 -54 34 -69 l31 -15 -19 -49 c-10 -26 -18 -54
-16 -62 7 -33 21 -13 47 67 15 47 38 104 50 128 20 39 20 43 4 49 -9 4 -18 2
-20 -3 -32 -94 -100 -116 -86 -27 5 26 2 33 -11 33 -14 0 -17 -9 -14 -52z"/>
<path d="M2715 9571 c-7 -31 3 -59 29 -80 12 -10 24 -8 66 16 41 23 50 33 50
56 0 37 -13 34 -33 -7 -17 -37 -52 -55 -70 -37 -6 6 -10 27 -9 46 3 44 -23 49
-33 6z"/>
<path d="M3040 9546 c0 -40 8 -66 21 -66 10 0 12 44 3 78 -9 34 -24 26 -24
-12z"/>
<path d="M4108 8700 c-14 -4 -32 -11 -39 -15 -19 -12 31 -45 69 -45 41 0 72
-30 72 -70 0 -62 -77 -93 -121 -49 -15 15 -20 30 -17 54 3 28 -1 36 -24 49
-27 16 -27 16 -37 -19 -26 -97 66 -191 163 -164 112 31 135 180 36 241 -34 21
-70 27 -102 18z"/>
<path d="M1494 8639 c-97 -27 -129 -152 -58 -223 72 -72 196 -39 223 60 27 97
-68 190 -165 163z m86 -79 c43 -43 11 -120 -50 -120 -38 0 -70 32 -70 70 0 38
32 70 70 70 17 0 39 -9 50 -20z"/>
<path d="M4112 8379 c-45 -17 -48 -78 -5 -106 49 -33 113 31 80 80 -18 29 -44
37 -75 26z"/>
<path d="M1502 8319 c-45 -17 -48 -78 -5 -106 49 -33 113 31 80 80 -18 29 -44
37 -75 26z"/>
<path d="M3894 8309 c-97 -27 -129 -152 -58 -223 95 -94 260 0 223 127 -22 74
-94 116 -165 96z m86 -79 c43 -43 11 -120 -50 -120 -38 0 -70 32 -70 70 0 38
32 70 70 70 17 0 39 -9 50 -20z"/>
<path d="M4314 8309 c-97 -27 -129 -152 -58 -223 95 -94 260 0 223 127 -22 74
-94 116 -165 96z m86 -79 c43 -43 11 -120 -50 -120 -38 0 -70 32 -70 70 0 38
32 70 70 70 17 0 39 -9 50 -20z"/>
<path d="M1284 8259 c-97 -27 -129 -152 -58 -223 72 -72 196 -39 223 60 27 97
-68 190 -165 163z m86 -79 c43 -43 11 -120 -50 -120 -38 0 -70 32 -70 70 0 38
32 70 70 70 17 0 39 -9 50 -20z"/>
<path d="M1704 8259 c-97 -27 -129 -152 -58 -223 72 -72 196 -39 223 60 27 97
-68 190 -165 163z m86 -79 c43 -43 11 -120 -50 -120 -38 0 -70 32 -70 70 0 38
32 70 70 70 17 0 39 -9 50 -20z"/>
<path d="M3536 7945 c-3 -9 -9 -48 -12 -86 -5 -53 -12 -75 -30 -94 -27 -30
-64 -34 -64 -7 0 25 19 42 48 42 14 0 22 5 20 13 -7 19 -37 20 -64 2 -21 -14
-25 -23 -22 -58 3 -39 5 -42 34 -45 21 -2 38 5 59 24 16 15 31 22 32 17 7 -20
32 -48 37 -42 4 3 -1 25 -9 49 -13 36 -13 53 -4 95 12 56 10 97 -7 102 -6 2
-14 -3 -18 -12z"/>
<path d="M5201 7936 c-18 -21 -41 -96 -41 -132 0 -72 34 -105 95 -90 66 17
102 158 53 203 -28 25 -93 37 -107 19z m93 -48 c21 -30 20 -51 -4 -97 -31 -61
-74 -69 -95 -17 -34 81 53 181 99 114z"/>
<path d="M525 7900 c-3 -5 -9 -42 -12 -81 -5 -55 -12 -78 -30 -100 -28 -33
-63 -39 -63 -11 0 25 19 42 47 42 32 0 29 18 -4 26 -47 12 -96 -69 -61 -104
20 -20 63 -14 88 13 26 28 40 32 40 11 0 -7 8 -20 17 -27 15 -13 16 -11 8 21
-5 19 -8 77 -6 128 2 85 -5 112 -24 82z"/>
<path d="M2531 7886 c-18 -21 -41 -96 -41 -132 0 -72 34 -105 95 -90 66 17
102 158 53 203 -28 25 -93 37 -107 19z m93 -48 c21 -30 20 -51 -4 -97 -31 -61
-74 -69 -95 -17 -34 81 53 181 99 114z"/>
<path d="M3780 7848 c-38 -11 -60 -25 -60 -39 0 -5 29 -24 65 -41 36 -18 65
-36 65 -41 0 -10 -65 -5 -92 7 -13 6 -18 4 -18 -6 0 -33 90 -50 126 -24 26 20
11 44 -49 76 -26 14 -47 28 -47 32 0 4 16 10 35 14 20 3 34 11 32 17 -5 15
-17 16 -57 5z"/>
<path d="M3121 7831 c-18 -18 -21 -32 -19 -74 4 -64 21 -64 28 -1 6 61 26 74
74 51 30 -14 36 -22 36 -47 0 -70 113 -65 153 6 11 19 -32 63 -67 70 -22 4
-44 0 -63 -10 -26 -13 -32 -13 -44 -1 -8 8 -28 17 -46 21 -24 5 -36 1 -52 -15z
m230 -31 c28 -16 23 -39 -12 -54 -56 -23 -92 1 -63 43 16 23 44 27 75 11z"/>
<path d="M4728 7833 c-23 -25 -34 -98 -18 -118 19 -23 33 -6 25 31 -11 61 25
91 77 63 25 -14 36 -3 17 17 -25 25 -81 29 -101 7z"/>
<path d="M2961 7814 c-17 -22 -21 -41 -21 -100 0 -82 14 -134 32 -116 7 7 7
20 -1 43 -6 17 -11 45 -11 62 0 24 3 28 18 22 39 -16 53 -17 77 -1 33 22 32
51 -4 87 -36 36 -63 37 -90 3z m85 -59 c-8 -22 -50 -16 -54 8 -2 10 2 25 9 33
11 13 15 13 32 -5 12 -11 17 -26 13 -36z"/>
<path d="M3944 7825 c-28 -19 -48 -69 -40 -100 11 -44 82 -67 140 -45 45 17
31 31 -24 24 -41 -5 -54 -3 -70 11 -11 10 -20 26 -20 37 0 21 1 22 34 7 47
-22 99 34 64 69 -16 16 -59 15 -84 -3z m66 -25 c0 -15 -27 -23 -47 -16 -15 6
-15 8 -3 16 20 13 50 12 50 0z"/>
<path d="M4095 7815 c-52 -51 -11 -108 84 -117 51 -5 52 20 1 28 -23 4 -51 15
-63 25 l-22 18 23 23 c19 19 25 21 42 10 28 -17 32 -15 28 11 -5 34 -60 36
-93 2z"/>
<path d="M4386 7809 c-29 -34 -31 -42 -16 -69 16 -30 129 -57 137 -33 3 8 -11
15 -37 19 -23 4 -51 15 -63 24 -21 18 -22 18 -3 39 23 26 45 27 62 4 12 -17
13 -17 19 0 10 24 -12 47 -45 47 -19 0 -37 -10 -54 -31z"/>
<path d="M4553 7825 c-30 -22 -33 -89 -4 -105 44 -23 110 -5 132 36 11 22 10
27 -12 50 -32 32 -86 41 -116 19z m88 -25 c28 -16 23 -39 -12 -54 -42 -18 -69
-10 -69 20 0 37 42 54 81 34z"/>
<path d="M4877 7812 c-37 -39 -44 -81 -17 -109 26 -29 64 -38 108 -27 59 15
52 34 -10 27 -45 -4 -56 -2 -72 16 -25 27 -15 56 15 41 33 -18 79 5 79 40 0
48 -62 55 -103 12z m73 -11 c0 -6 -5 -13 -10 -16 -15 -9 -43 3 -35 15 8 13 45
13 45 1z"/>
<path d="M756 7802 c-7 -11 31 -112 49 -131 13 -13 17 -12 36 5 23 20 79 102
79 116 0 21 -27 4 -44 -27 -22 -40 -53 -71 -63 -62 -3 4 -11 28 -18 54 -12 45
-27 64 -39 45z"/>
<path d="M1110 7798 c-38 -11 -60 -25 -60 -39 0 -5 29 -24 65 -41 36 -18 65
-36 65 -41 0 -10 -65 -5 -92 7 -13 6 -18 4 -18 -6 0 -33 90 -50 126 -24 26 20
11 44 -49 76 -26 14 -47 28 -47 32 0 4 16 10 35 14 20 3 34 11 32 17 -5 15
-17 16 -57 5z"/>
<path d="M3595 7800 c-3 -5 0 -12 7 -15 23 -8 103 0 103 10 0 14 -102 19 -110
5z"/>
<path d="M4235 7800 c-3 -5 0 -12 7 -15 23 -8 103 0 103 10 0 14 -102 19 -110
5z"/>
<path d="M5020 7795 c0 -12 11 -15 52 -13 74 4 77 28 4 28 -44 0 -56 -3 -56
-15z"/>
<path d="M2058 7783 c-23 -25 -34 -98 -18 -118 19 -23 33 -6 25 31 -11 61 25
91 77 63 25 -14 36 -3 17 17 -25 25 -81 29 -101 7z"/>
<path d="M617 7762 c-37 -39 -44 -81 -17 -109 26 -29 64 -38 108 -27 59 15 52
34 -10 27 -45 -4 -56 -2 -72 16 -25 27 -15 56 15 41 33 -18 79 5 79 40 0 48
-62 55 -103 12z m73 -11 c0 -6 -5 -13 -10 -16 -15 -9 -43 3 -35 15 8 13 45 13
45 1z"/>
<path d="M1274 7775 c-28 -19 -48 -69 -40 -100 11 -44 82 -67 140 -45 45 17
31 31 -24 24 -41 -5 -54 -3 -70 11 -11 10 -20 26 -20 37 0 21 1 22 34 7 47
-22 99 34 64 69 -16 16 -59 15 -84 -3z m66 -25 c0 -15 -27 -23 -47 -16 -15 6
-15 8 -3 16 20 13 50 12 50 0z"/>
<path d="M1425 7765 c-52 -51 -11 -108 84 -117 51 -5 52 20 1 28 -23 4 -51 15
-63 25 l-22 18 23 23 c19 19 25 21 42 10 28 -17 32 -15 28 11 -5 34 -60 36
-93 2z"/>
<path d="M1716 7759 c-29 -34 -31 -42 -16 -69 16 -30 129 -57 137 -33 3 8 -11
15 -37 19 -23 4 -51 15 -63 24 -21 18 -22 18 -3 39 23 26 45 27 62 4 12 -17
13 -17 19 0 10 24 -12 47 -45 47 -19 0 -37 -10 -54 -31z"/>
<path d="M1883 7775 c-30 -22 -33 -89 -4 -105 44 -23 110 -5 132 36 11 22 10
27 -12 50 -32 32 -86 41 -116 19z m88 -25 c28 -16 23 -39 -12 -54 -42 -18 -69
-10 -69 20 0 37 42 54 81 34z"/>
<path d="M2207 7762 c-37 -39 -44 -81 -17 -109 26 -29 64 -38 108 -27 59 15
52 34 -10 27 -45 -4 -56 -2 -72 16 -25 27 -15 56 15 41 33 -18 79 5 79 40 0
48 -62 55 -103 12z m73 -11 c0 -6 -5 -13 -10 -16 -15 -9 -43 3 -35 15 8 13 45
13 45 1z"/>
<path d="M925 7750 c-3 -5 0 -12 7 -15 23 -8 103 0 103 10 0 14 -102 19 -110
5z"/>
<path d="M1565 7750 c-3 -5 0 -12 7 -15 23 -8 103 0 103 10 0 14 -102 19 -110
5z"/>
<path d="M2350 7745 c0 -12 11 -15 52 -13 74 4 77 28 4 28 -44 0 -56 -3 -56
-15z"/>
<path d="M4000 7470 l-135 -58 -3 -78 c-6 -172 30 -277 125 -364 71 -65 128
-87 185 -71 92 26 178 113 218 218 17 47 20 74 18 176 l-3 121 -134 58 c-74
32 -135 58 -135 57 -1 0 -62 -27 -136 -59z m176 -46 c34 -23 54 -65 54 -114 0
-33 -7 -47 -40 -80 -22 -22 -40 -42 -40 -44 0 -2 9 -6 20 -9 15 -4 20 -14 20
-36 0 -24 -4 -31 -20 -31 -11 0 -20 -4 -20 -10 0 -5 9 -10 20 -10 16 0 20 -7
20 -35 0 -28 -4 -35 -19 -35 -13 0 -21 -8 -23 -22 -2 -18 -11 -24 -35 -26
l-33 -3 0 115 0 115 -30 16 c-77 40 -79 168 -2 209 36 20 97 20 128 0z"/>
<path d="M4086 7325 c-4 -12 17 -45 29 -45 2 0 10 7 19 15 20 20 10 45 -19 45
-13 0 -25 -7 -29 -15z"/>
<path d="M1270 7340 l-135 -58 -3 -78 c-4 -98 12 -204 39 -256 54 -106 181
-196 258 -183 50 8 135 67 177 122 59 77 75 139 72 276 l-3 121 -134 58 c-74
32 -135 58 -135 57 -1 0 -62 -27 -136 -59z m186 -46 c34 -23 54 -65 54 -114 0
-33 -7 -47 -40 -80 -22 -22 -40 -42 -40 -44 0 -2 9 -6 20 -9 15 -4 20 -14 20
-36 0 -24 -4 -31 -20 -31 -11 0 -20 -4 -20 -10 0 -5 9 -10 20 -10 16 0 20 -7
20 -35 0 -28 -4 -35 -19 -35 -13 0 -21 -8 -23 -22 -2 -18 -11 -24 -35 -26
l-33 -3 0 115 0 115 -30 16 c-77 40 -79 168 -2 209 36 20 97 20 128 0z"/>
<path d="M1356 7195 c-4 -12 17 -45 29 -45 2 0 10 7 19 15 20 20 10 45 -19 45
-13 0 -25 -7 -29 -15z"/>
<path d="M4347 6742 c-86 -34 -88 -54 -5 -94 67 -32 76 -43 47 -59 -20 -10
-54 -8 -106 7 -17 5 -23 2 -23 -9 0 -21 72 -41 115 -33 18 4 40 15 50 26 16
18 16 21 1 44 -8 14 -36 34 -61 45 -25 11 -45 22 -45 25 0 7 90 46 107 46 16
0 13 22 -3 26 -5 2 -40 -9 -77 -24z"/>
<path d="M3861 6751 c-11 -7 -29 -110 -31 -178 0 -29 21 -30 38 -2 l14 21 27
-26 c53 -50 72 -23 20 30 l-30 31 50 55 c28 31 51 61 51 67 0 26 -32 7 -80
-46 l-52 -58 7 58 c8 61 7 61 -14 48z"/>
<path d="M4074 6723 c-11 -53 -27 -98 -42 -120 -8 -13 -11 -30 -8 -40 6 -15 8
-15 22 -2 8 9 23 37 33 64 l19 49 16 -32 c19 -36 42 -42 51 -12 10 30 22 16
29 -34 7 -41 29 -76 42 -63 3 3 -2 26 -10 51 -9 26 -16 68 -16 94 0 43 -12 72
-30 72 -4 0 -12 -18 -19 -40 -6 -22 -15 -40 -20 -40 -4 0 -13 18 -20 40 -14
46 -38 53 -47 13z"/>
<path d="M1627 6612 c-86 -34 -88 -54 -5 -94 67 -32 76 -43 47 -59 -20 -10
-54 -8 -106 7 -17 5 -23 2 -23 -9 0 -21 72 -41 115 -33 18 4 40 15 50 26 16
18 16 21 1 44 -8 14 -36 34 -61 45 -25 11 -45 22 -45 25 0 7 90 46 107 46 16
0 13 22 -3 26 -5 2 -40 -9 -77 -24z"/>
<path d="M1141 6621 c-11 -7 -29 -110 -31 -178 0 -29 21 -30 38 -2 l14 21 27
-26 c53 -50 72 -23 20 30 l-30 31 50 55 c28 31 51 61 51 67 0 26 -32 7 -80
-46 l-52 -58 7 58 c8 61 7 61 -14 48z"/>
<path d="M1354 6593 c-11 -53 -27 -98 -42 -120 -8 -13 -11 -30 -8 -40 6 -15 8
-15 22 -2 8 9 23 37 33 64 l19 49 16 -32 c19 -36 42 -42 51 -12 10 30 22 16
29 -34 7 -41 29 -76 42 -63 3 3 -2 26 -10 51 -9 26 -16 68 -16 94 0 43 -12 72
-30 72 -4 0 -12 -18 -19 -40 -6 -22 -15 -40 -20 -40 -4 0 -13 18 -20 40 -14
46 -38 53 -47 13z"/>
<path d="M3530 6131 c-220 -6 -226 -7 -282 -34 -99 -48 -153 -134 -178 -279
-7 -42 -10 -260 -8 -653 l3 -590 26 -55 c36 -78 124 -163 195 -189 52 -20 78
-22 357 -23 166 -2 507 0 757 3 l455 5 62 28 c76 35 144 104 180 184 21 44 28
81 35 172 17 232 19 669 5 910 -17 287 -27 322 -122 417 -52 51 -72 64 -131
83 -67 21 -86 22 -599 25 -291 1 -631 0 -755 -4z m1319 -59 c151 -52 223 -119
253 -235 18 -71 18 -1067 0 -1173 -18 -110 -42 -171 -84 -219 -86 -98 -195
-120 -523 -105 -154 7 -358 7 -619 0 -246 -6 -413 -6 -455 0 -156 22 -237 67
-276 153 -54 117 -56 148 -58 737 -2 596 -2 604 56 713 45 86 122 136 238 156
30 5 351 8 714 8 l660 -2 94 -33z m86 -2 c3 -6 -1 -7 -9 -4 -18 7 -21 14 -7
14 6 0 13 -4 16 -10z"/>
<path d="M4036 5981 c-4 -5 -9 -31 -13 -58 -3 -26 -13 -53 -21 -59 -13 -9 -12
-13 6 -25 14 -10 22 -28 24 -54 4 -55 31 -55 32 0 l1 39 48 -3 c27 -1 47 2 47
8 0 11 -16 17 -72 27 -36 6 -38 8 -38 44 0 55 20 67 57 33 16 -16 33 -35 36
-43 4 -9 9 -11 12 -4 3 6 19 8 36 6 29 -4 30 -3 17 17 -7 12 -20 20 -29 19 -9
-2 -32 12 -53 30 -35 31 -79 42 -90 23z"/>
<path d="M3807 5953 c-4 -3 -7 -17 -7 -30 0 -16 -6 -23 -20 -23 -10 0 -25 -6
-32 -14 -8 -9 -26 -12 -49 -9 -30 4 -39 1 -58 -23 -26 -34 -27 -119 -1 -119
11 0 16 13 18 47 4 57 22 76 58 59 33 -15 44 -14 44 4 0 20 36 19 44 -1 3 -9
6 -35 6 -59 0 -58 19 -74 64 -52 33 15 53 52 34 63 -5 3 -16 -3 -24 -15 -29
-41 -45 -27 -42 36 3 55 4 57 36 65 43 11 41 26 -5 30 -31 2 -39 7 -41 26 -3
22 -13 28 -25 15z"/>
<path d="M4657 5953 c-4 -3 -7 -16 -7 -28 0 -17 -8 -24 -31 -29 -38 -7 -38
-43 0 -38 31 5 41 -12 41 -69 0 -62 18 -78 64 -56 33 15 53 52 34 63 -5 3 -16
-3 -24 -15 -29 -41 -45 -27 -42 36 3 55 4 57 36 65 43 11 41 26 -5 30 -31 2
-39 7 -41 26 -3 22 -13 28 -25 15z"/>
<path d="M3333 5942 c-58 -6 -107 -87 -84 -138 21 -48 110 -80 150 -55 23 15
2 32 -32 26 -38 -7 -97 25 -97 53 0 18 26 61 44 74 21 15 37 7 47 -22 12 -33
26 -39 35 -15 6 15 -13 73 -25 78 -3 1 -20 1 -38 -1z"/>
<path d="M3937 5923 c-11 -10 13 -33 34 -33 22 0 24 11 7 28 -13 13 -31 16
-41 5z"/>
<path d="M4283 5863 c-34 -16 -57 -56 -48 -84 8 -24 47 -44 101 -54 77 -12 62
22 -16 39 -40 9 -53 21 -46 44 9 27 35 36 56 17 24 -22 32 -19 28 11 -4 35
-36 47 -75 27z"/>
<path d="M4865 5870 c-52 -20 -89 -98 -63 -131 30 -37 89 -49 142 -29 47 17
30 32 -28 25 -47 -6 -57 -4 -75 14 -29 29 -19 52 19 38 50 -19 107 40 68 70
-22 17 -42 21 -63 13z m35 -39 c0 -5 -6 -11 -12 -14 -18 -6 -39 3 -32 14 7 12
44 12 44 0z"/>
<path d="M3497 5859 c-22 -13 -47 -61 -47 -93 0 -51 78 -81 144 -56 46 17 31
33 -25 25 -40 -6 -54 -4 -70 11 -31 28 -25 46 15 39 46 -9 76 8 76 44 0 39
-49 55 -93 30z m63 -28 c0 -12 -29 -23 -41 -15 -5 3 -7 10 -4 15 8 12 45 12
45 0z"/>
<path d="M4423 5838 c-29 -33 -33 -53 -17 -77 20 -27 61 -27 91 1 l23 21 23
-21 c24 -23 57 -30 57 -12 0 6 -7 13 -15 17 -9 3 -23 19 -32 36 -23 46 -38 57
-76 57 -22 0 -40 -8 -54 -22z m77 -13 c0 -19 -36 -55 -55 -55 -18 0 -20 34 -2
48 6 5 21 12 32 15 11 2 21 5 23 6 1 0 2 -6 2 -14z"/>
<path d="M3950 5803 c0 -46 14 -73 30 -57 15 15 1 94 -16 94 -9 0 -14 -12 -14
-37z"/>
<path d="M4182 5794 c2 -28 8 -49 16 -52 10 -3 12 8 10 44 -2 28 -8 49 -16 52
-10 3 -12 -8 -10 -44z"/>
<path d="M3427 5518 c-14 -29 -49 -78 -77 -110 -47 -53 -61 -78 -41 -78 4 0
20 9 33 20 14 10 45 22 68 26 40 7 43 6 38 -14 -6 -21 13 -47 25 -35 4 3 7 18
7 33 0 14 5 31 12 38 9 9 7 13 -6 18 -15 6 -17 16 -11 80 6 62 5 74 -8 74 -8
0 -26 -24 -40 -52z m13 -78 c0 -23 -4 -30 -20 -30 -24 0 -25 5 -2 35 22 31 22
31 22 -5z"/>
<path d="M3737 5553 c-4 -3 -7 -16 -7 -28 0 -17 -8 -24 -31 -29 -22 -4 -30
-11 -27 -23 3 -14 12 -17 36 -15 l32 3 0 -53 c0 -68 16 -92 53 -83 28 7 57 39
57 62 0 21 -27 15 -33 -8 -4 -13 -12 -20 -24 -17 -15 3 -18 13 -18 58 l0 54
38 9 c48 12 48 27 -2 27 -33 0 -40 4 -45 25 -6 25 -16 31 -29 18z"/>
<path d="M4460 5532 c0 -26 -4 -30 -32 -35 -25 -3 -36 1 -46 14 -17 24 -45 25
-40 2 2 -10 13 -19 25 -21 11 -2 23 -12 26 -23 4 -15 11 -18 35 -13 l29 6 5
-62 c5 -65 18 -84 53 -74 45 14 78 74 40 74 -8 0 -15 -7 -15 -15 0 -21 -30
-31 -41 -14 -13 22 -11 99 4 103 6 3 24 7 40 10 40 9 33 26 -12 26 -33 0 -40
4 -43 22 -5 34 -28 34 -28 0z"/>
<path d="M3873 5439 c2 -51 8 -94 14 -96 6 -2 22 12 37 32 15 19 31 35 36 35
6 0 16 -15 24 -34 22 -54 40 -58 32 -6 -13 81 -39 100 -82 59 l-23 -22 -5 24
c-3 13 -7 39 -8 58 -2 19 -9 36 -15 39 -10 3 -12 -18 -10 -89z"/>
<path d="M4226 5458 c-18 -26 -22 -113 -5 -124 15 -9 28 13 22 37 -8 29 5 67
25 73 11 4 35 0 55 -9 31 -13 36 -20 39 -52 4 -44 28 -59 28 -16 0 41 -11 74
-23 70 -6 -2 -21 7 -35 20 -33 31 -85 31 -106 1z"/>
<path d="M4053 5453 c-27 -18 -30 -58 -7 -91 28 -41 134 -20 150 30 5 17 -1
28 -25 50 -36 32 -82 36 -118 11z m95 -29 c22 -15 23 -17 6 -35 -24 -26 -77
-22 -83 5 -3 19 22 46 44 46 6 0 21 -7 33 -16z"/>
<path d="M4597 5438 c-6 -41 11 -80 41 -93 26 -12 26 -11 7 -65 -8 -23 -15
-51 -15 -62 0 -43 23 -8 54 83 19 52 41 110 50 127 16 30 16 33 -1 39 -9 4
-18 2 -20 -3 -13 -39 -43 -79 -59 -79 -15 0 -19 8 -20 40 0 52 -29 62 -37 13z"/>
<path d="M3515 5430 c-5 -21 -2 -39 10 -56 21 -33 41 -40 79 -26 20 8 34 8 40
2 19 -19 23 -10 22 45 0 62 -16 73 -36 25 -26 -63 -84 -59 -78 4 4 44 -28 49
-37 6z"/>
<path d="M3646 5135 c-32 -13 -63 -28 -68 -33 -17 -17 5 -40 63 -66 32 -14 59
-32 59 -39 0 -22 -56 -29 -97 -12 -44 19 -43 19 -43 -5 0 -44 111 -55 156 -17
36 32 26 57 -36 91 -28 15 -48 31 -45 36 7 11 76 35 93 32 6 -2 12 6 12 18 0
26 -21 25 -94 -5z"/>
<path d="M4235 5120 c-10 -16 4 -30 31 -30 22 0 23 2 12 20 -14 22 -33 26 -43
10z"/>
<path d="M4070 5069 c0 -19 -1 -19 -22 -5 -60 42 -121 -2 -116 -83 2 -33 7
-46 18 -46 11 0 16 13 18 47 4 59 21 75 61 58 17 -6 35 -9 41 -5 6 4 13 -5 16
-22 8 -41 38 -77 57 -70 22 8 86 98 87 120 0 27 -26 20 -39 -10 -17 -39 -49
-76 -60 -69 -5 4 -12 21 -16 39 -12 57 -16 67 -31 67 -8 0 -14 -9 -14 -21z"/>
<path d="M4353 5063 c-34 -16 -57 -56 -48 -84 8 -24 47 -44 101 -54 77 -12 62
22 -16 39 -40 9 -53 21 -46 44 9 27 35 36 56 17 24 -22 32 -19 28 11 -4 35
-36 47 -75 27z"/>
<path d="M4532 5064 c-32 -13 -62 -58 -62 -94 0 -36 44 -70 89 -70 47 0 91 15
91 30 0 8 -17 9 -54 5 -47 -6 -57 -4 -75 14 -30 30 -27 44 9 36 57 -13 102 23
81 64 -14 25 -42 31 -79 15z m48 -33 c0 -12 -29 -23 -41 -15 -5 3 -7 10 -4 15
8 12 45 12 45 0z"/>
<path d="M3807 5059 c-22 -13 -47 -61 -47 -93 0 -51 78 -81 144 -56 46 17 31
33 -25 25 -40 -6 -54 -4 -70 11 -31 28 -25 46 15 39 46 -9 76 8 76 44 0 39
-49 55 -93 30z m63 -28 c0 -12 -29 -23 -41 -15 -5 3 -7 10 -4 15 8 12 45 12
45 0z"/>
<path d="M4252 4994 c2 -28 8 -49 16 -52 10 -3 12 8 10 44 -2 28 -8 49 -16 52
-10 3 -12 -8 -10 -44z"/>
<path d="M3732 4789 c-32 -12 -66 -91 -58 -134 7 -34 87 -125 112 -125 24 0
15 29 -17 52 -73 54 -78 143 -10 194 19 15 1 24 -27 13z"/>
<path d="M4426 4792 c-2 -4 11 -39 30 -76 43 -87 44 -121 4 -144 -16 -9 -30
-23 -30 -29 0 -19 35 -16 61 6 33 26 33 105 0 179 -23 50 -54 81 -65 64z"/>
<path d="M4138 4712 c-15 -31 -50 -82 -77 -114 -28 -31 -51 -59 -51 -62 0 -12
22 -6 49 13 15 11 43 22 64 26 33 6 37 5 37 -13 0 -21 23 -46 33 -35 4 3 7 18
7 33 0 14 5 31 12 38 9 9 7 13 -6 18 -15 6 -17 17 -14 78 4 93 -15 100 -54 18z
m22 -72 c0 -25 -4 -30 -25 -30 l-26 0 23 30 c12 17 23 30 25 30 2 0 3 -13 3
-30z"/>
<path d="M4302 4732 c-81 -35 -81 -55 0 -94 68 -33 77 -45 43 -58 -28 -10 -71
-4 -93 13 -9 7 -16 7 -24 -1 -34 -34 89 -68 142 -40 28 15 38 52 19 74 -6 8
-31 23 -55 34 -24 10 -44 21 -44 24 0 8 90 46 103 43 7 -1 12 5 12 13 0 24
-35 21 -103 -8z"/>
<path d="M3903 4742 c-64 -6 -113 -96 -84 -151 16 -29 85 -54 126 -47 51 10
39 31 -18 31 -82 1 -109 53 -59 115 23 28 48 22 62 -15 19 -51 47 -23 30 30
-13 41 -15 42 -57 37z"/>
<path d="M1060 6111 c-333 -8 -335 -8 -441 -61 -104 -53 -173 -135 -205 -245
-15 -52 -16 -87 -10 -260 3 -110 2 -299 -3 -420 -5 -121 -6 -296 -2 -390 6
-153 10 -176 33 -225 29 -62 92 -130 157 -168 85 -50 117 -52 621 -46 256 3
555 2 665 -3 229 -10 305 -4 381 31 112 52 172 123 198 236 19 81 36 411 36
675 0 214 -22 539 -41 608 -18 67 -54 131 -98 170 -97 88 -139 95 -601 100
-206 2 -517 1 -690 -2z m1124 -46 c33 -9 82 -28 110 -43 42 -22 57 -38 84 -89
66 -126 72 -179 72 -724 0 -539 -2 -562 -70 -704 -39 -81 -121 -159 -188 -178
-37 -10 -199 -12 -758 -11 -391 1 -726 5 -745 9 -85 19 -181 91 -220 167 -45
87 -46 113 -43 679 3 519 4 538 25 600 61 182 165 282 319 308 32 5 333 7 705
5 546 -3 660 -6 709 -19z m-1716 -200 c-12 -24 -23 -43 -26 -41 -4 5 36 86 43
86 3 0 -5 -20 -17 -45z m1968 -1308 c-15 -51 -59 -132 -78 -143 -7 -4 -3 6 9
22 23 34 56 106 67 148 4 15 9 26 12 24 2 -3 -2 -26 -10 -51z"/>
<path d="M1376 5961 c-4 -5 -9 -31 -13 -58 -3 -26 -13 -53 -21 -59 -13 -9 -12
-13 6 -25 14 -10 22 -28 24 -54 4 -55 31 -55 32 0 l1 39 48 -3 c27 -1 47 2 47
8 0 11 -16 17 -72 27 -36 6 -38 8 -38 44 0 55 20 67 57 33 16 -16 33 -35 36
-43 4 -9 9 -11 12 -4 3 6 19 8 36 6 29 -4 30 -3 17 17 -7 12 -20 20 -29 19 -9
-2 -32 12 -53 30 -35 31 -79 42 -90 23z"/>
<path d="M1147 5933 c-4 -3 -7 -17 -7 -30 0 -16 -6 -23 -20 -23 -10 0 -25 -6
-32 -14 -8 -9 -26 -12 -49 -9 -30 4 -39 1 -58 -23 -26 -34 -27 -119 -1 -119
11 0 16 13 18 47 4 57 22 76 58 59 33 -15 44 -14 44 4 0 20 36 19 44 -1 3 -9
6 -35 6 -59 0 -58 19 -74 64 -52 33 15 53 52 34 63 -5 3 -16 -3 -24 -15 -29
-41 -45 -27 -42 36 3 55 4 57 36 65 43 11 41 26 -5 30 -31 2 -39 7 -41 26 -3
22 -13 28 -25 15z"/>
<path d="M1997 5933 c-4 -3 -7 -16 -7 -28 0 -17 -8 -24 -31 -29 -38 -7 -38
-43 0 -38 31 5 41 -12 41 -69 0 -62 18 -78 64 -56 33 15 53 52 34 63 -5 3 -16
-3 -24 -15 -29 -41 -45 -27 -42 36 3 55 4 57 36 65 43 11 41 26 -5 30 -31 2
-39 7 -41 26 -3 22 -13 28 -25 15z"/>
<path d="M673 5922 c-58 -6 -107 -87 -84 -138 21 -48 110 -80 150 -55 23 15 2
32 -32 26 -38 -7 -97 25 -97 53 0 18 26 61 44 74 21 15 37 7 47 -22 12 -33 26
-39 35 -15 6 15 -13 73 -25 78 -3 1 -20 1 -38 -1z"/>
<path d="M1277 5903 c-11 -10 13 -33 34 -33 22 0 24 11 7 28 -13 13 -31 16
-41 5z"/>
<path d="M1623 5843 c-34 -16 -57 -56 -48 -84 8 -24 47 -44 101 -54 77 -12 62
22 -16 39 -40 9 -53 21 -46 44 9 27 35 36 56 17 24 -22 32 -19 28 11 -4 35
-36 47 -75 27z"/>
<path d="M2205 5850 c-52 -20 -89 -98 -63 -131 30 -37 89 -49 142 -29 47 17
30 32 -28 25 -47 -6 -57 -4 -75 14 -29 29 -19 52 19 38 50 -19 107 40 68 70
-22 17 -42 21 -63 13z m35 -39 c0 -5 -6 -11 -12 -14 -18 -6 -39 3 -32 14 7 12
44 12 44 0z"/>
<path d="M837 5839 c-22 -13 -47 -61 -47 -93 0 -51 78 -81 144 -56 46 17 31
33 -25 25 -40 -6 -54 -4 -70 11 -31 28 -25 46 15 39 46 -9 76 8 76 44 0 39
-49 55 -93 30z m63 -28 c0 -12 -29 -23 -41 -15 -5 3 -7 10 -4 15 8 12 45 12
45 0z"/>
<path d="M1763 5818 c-29 -33 -33 -53 -17 -77 20 -27 61 -27 91 1 l23 21 23
-21 c24 -23 57 -30 57 -12 0 6 -7 13 -15 17 -9 3 -23 19 -32 36 -23 46 -38 57
-76 57 -22 0 -40 -8 -54 -22z m77 -13 c0 -19 -36 -55 -55 -55 -18 0 -20 34 -2
48 6 5 21 12 32 15 11 2 21 5 23 6 1 0 2 -6 2 -14z"/>
<path d="M1290 5783 c0 -46 14 -73 30 -57 15 15 1 94 -16 94 -9 0 -14 -12 -14
-37z"/>
<path d="M1522 5774 c2 -28 8 -49 16 -52 10 -3 12 8 10 44 -2 28 -8 49 -16 52
-10 3 -12 -8 -10 -44z"/>
<path d="M767 5498 c-14 -29 -49 -78 -77 -110 -47 -53 -61 -78 -41 -78 4 0 20
9 33 20 14 10 45 22 68 26 40 7 43 6 38 -14 -6 -21 13 -47 25 -35 4 3 7 18 7
33 0 14 5 31 12 38 9 9 7 13 -6 18 -15 6 -17 16 -11 80 6 62 5 74 -8 74 -8 0
-26 -24 -40 -52z m13 -78 c0 -23 -4 -30 -20 -30 -24 0 -25 5 -2 35 22 31 22
31 22 -5z"/>
<path d="M1077 5533 c-4 -3 -7 -16 -7 -28 0 -17 -8 -24 -31 -29 -22 -4 -30
-11 -27 -23 3 -14 12 -17 36 -15 l32 3 0 -53 c0 -68 16 -92 53 -83 28 7 57 39
57 62 0 21 -27 15 -33 -8 -4 -13 -12 -20 -24 -17 -15 3 -18 13 -18 58 l0 54
38 9 c48 12 48 27 -2 27 -33 0 -40 4 -45 25 -6 25 -16 31 -29 18z"/>
<path d="M1800 5512 c0 -26 -4 -30 -32 -35 -25 -3 -36 1 -46 14 -17 24 -45 25
-40 2 2 -10 13 -19 25 -21 11 -2 23 -12 26 -23 4 -15 11 -18 35 -13 l29 6 5
-62 c5 -65 18 -84 53 -74 45 14 78 74 40 74 -8 0 -15 -7 -15 -15 0 -21 -30
-31 -41 -14 -13 22 -11 99 4 103 6 3 24 7 40 10 40 9 33 26 -12 26 -33 0 -40
4 -43 22 -5 34 -28 34 -28 0z"/>
<path d="M1213 5419 c2 -51 8 -94 14 -96 6 -2 22 12 37 32 15 19 31 35 36 35
6 0 16 -15 24 -34 22 -54 40 -58 32 -6 -13 81 -39 100 -82 59 l-23 -22 -5 24
c-3 13 -7 39 -8 58 -2 19 -9 36 -15 39 -10 3 -12 -18 -10 -89z"/>
<path d="M1566 5438 c-18 -26 -22 -113 -5 -124 15 -9 28 13 22 37 -8 29 5 67
25 73 11 4 35 0 55 -9 31 -13 36 -20 39 -52 4 -44 28 -59 28 -16 0 41 -11 74
-23 70 -6 -2 -21 7 -35 20 -33 31 -85 31 -106 1z"/>
<path d="M1393 5433 c-27 -18 -30 -58 -7 -91 28 -41 134 -20 150 30 5 17 -1
28 -25 50 -36 32 -82 36 -118 11z m95 -29 c22 -15 23 -17 6 -35 -24 -26 -77
-22 -83 5 -3 19 22 46 44 46 6 0 21 -7 33 -16z"/>
<path d="M1937 5418 c-6 -41 11 -80 41 -93 26 -12 26 -11 7 -65 -8 -23 -15
-51 -15 -62 0 -43 23 -8 54 83 19 52 41 110 50 127 16 30 16 33 -1 39 -9 4
-18 2 -20 -3 -13 -39 -43 -79 -59 -79 -15 0 -19 8 -20 40 0 52 -29 62 -37 13z"/>
<path d="M855 5410 c-5 -21 -2 -39 10 -56 21 -33 41 -40 79 -26 20 8 34 8 40
2 19 -19 23 -10 22 45 0 62 -16 73 -36 25 -26 -63 -84 -59 -78 4 4 44 -28 49
-37 6z"/>
<path d="M986 5115 c-32 -13 -63 -28 -68 -33 -17 -17 5 -40 63 -66 32 -14 59
-32 59 -39 0 -22 -56 -29 -97 -12 -44 19 -43 19 -43 -5 0 -44 111 -55 156 -17
36 32 26 57 -36 91 -28 15 -48 31 -45 36 7 11 76 35 93 32 6 -2 12 6 12 18 0
26 -21 25 -94 -5z"/>
<path d="M1575 5100 c-10 -16 4 -30 31 -30 22 0 23 2 12 20 -14 22 -33 26 -43
10z"/>
<path d="M1410 5049 c0 -19 -1 -19 -22 -5 -60 42 -121 -2 -116 -83 2 -33 7
-46 18 -46 11 0 16 13 18 47 4 59 21 75 61 58 17 -6 35 -9 41 -5 6 4 13 -5 16
-22 8 -41 38 -77 57 -70 22 8 86 98 87 120 0 27 -26 20 -39 -10 -17 -39 -49
-76 -60 -69 -5 4 -12 21 -16 39 -12 57 -16 67 -31 67 -8 0 -14 -9 -14 -21z"/>
<path d="M1693 5043 c-34 -16 -57 -56 -48 -84 8 -24 47 -44 101 -54 77 -12 62
22 -16 39 -40 9 -53 21 -46 44 9 27 35 36 56 17 24 -22 32 -19 28 11 -4 35
-36 47 -75 27z"/>
<path d="M1872 5044 c-32 -13 -62 -58 -62 -94 0 -36 44 -70 89 -70 47 0 91 15
91 30 0 8 -17 9 -54 5 -47 -6 -57 -4 -75 14 -30 30 -27 44 9 36 57 -13 102 23
81 64 -14 25 -42 31 -79 15z m48 -33 c0 -12 -29 -23 -41 -15 -5 3 -7 10 -4 15
8 12 45 12 45 0z"/>
<path d="M1147 5039 c-22 -13 -47 -61 -47 -93 0 -51 78 -81 144 -56 46 17 31
33 -25 25 -40 -6 -54 -4 -70 11 -31 28 -25 46 15 39 46 -9 76 8 76 44 0 39
-49 55 -93 30z m63 -28 c0 -12 -29 -23 -41 -15 -5 3 -7 10 -4 15 8 12 45 12
45 0z"/>
<path d="M1592 4974 c2 -28 8 -49 16 -52 10 -3 12 8 10 44 -2 28 -8 49 -16 52
-10 3 -12 -8 -10 -44z"/>
<path d="M1072 4769 c-32 -12 -66 -91 -58 -134 7 -34 87 -125 112 -125 24 0
15 29 -17 52 -73 54 -78 143 -10 194 19 15 1 24 -27 13z"/>
<path d="M1766 4772 c-2 -4 11 -39 30 -76 43 -87 44 -121 4 -144 -16 -9 -30
-23 -30 -29 0 -19 35 -16 61 6 33 26 33 105 0 179 -23 50 -54 81 -65 64z"/>
<path d="M1478 4692 c-15 -31 -50 -82 -77 -114 -28 -31 -51 -59 -51 -62 0 -12
22 -6 49 13 15 11 43 22 64 26 33 6 37 5 37 -13 0 -21 23 -46 33 -35 4 3 7 18
7 33 0 14 5 31 12 38 9 9 7 13 -6 18 -15 6 -17 17 -14 78 4 93 -15 100 -54 18z
m22 -72 c0 -25 -4 -30 -25 -30 l-26 0 23 30 c12 17 23 30 25 30 2 0 3 -13 3
-30z"/>
<path d="M1642 4712 c-81 -35 -81 -55 0 -94 68 -33 77 -45 43 -58 -28 -10 -71
-4 -93 13 -9 7 -16 7 -24 -1 -34 -34 89 -68 142 -40 28 15 38 52 19 74 -6 8
-31 23 -55 34 -24 10 -44 21 -44 24 0 8 90 46 103 43 7 -1 12 5 12 13 0 24
-35 21 -103 -8z"/>
<path d="M1243 4722 c-64 -6 -113 -96 -84 -151 16 -29 85 -54 126 -47 51 10
39 31 -18 31 -82 1 -109 53 -59 115 23 28 48 22 62 -15 19 -51 47 -23 30 30
-13 41 -15 42 -57 37z"/>
<path d="M639 4075 c-124 -44 -208 -145 -238 -285 -17 -80 -26 -834 -12 -1040
12 -182 25 -242 67 -320 32 -59 66 -90 138 -127 48 -25 63 -27 241 -34 236 -9
792 -9 1105 -1 234 7 235 7 293 36 76 39 130 99 179 201 38 80 40 89 50 232 6
86 8 335 5 593 -6 492 -6 493 -74 597 -38 58 -73 88 -153 128 l-55 29 -755 2
c-593 1 -763 -1 -791 -11z m1508 -30 c156 -45 228 -124 274 -302 17 -70 19
-114 19 -565 0 -556 -4 -602 -66 -696 -43 -66 -127 -122 -238 -160 l-81 -27
-664 -3 c-736 -3 -741 -2 -829 61 -56 40 -94 107 -124 217 -23 84 -23 92 -23
630 0 534 0 546 22 615 41 130 102 197 212 235 43 14 125 16 744 14 616 -2
703 -4 754 -19z m138 -1685 c-10 -16 -96 -57 -135 -64 -28 -6 -24 -2 20 17 30
13 69 31 85 40 36 19 38 20 30 7z"/>
<path d="M1366 3941 c-4 -5 -9 -31 -13 -58 -3 -26 -13 -53 -21 -59 -13 -9 -12
-13 6 -25 14 -10 22 -28 24 -54 4 -55 31 -55 32 0 l1 39 48 -3 c27 -1 47 2 47
8 0 11 -16 17 -72 27 -36 6 -38 8 -38 44 0 55 20 67 57 33 16 -16 33 -35 36
-43 4 -9 9 -11 12 -4 3 6 19 8 36 6 29 -4 30 -3 17 17 -7 12 -20 20 -29 19 -9
-2 -32 12 -53 30 -35 31 -79 42 -90 23z"/>
<path d="M1137 3913 c-4 -3 -7 -17 -7 -30 0 -16 -6 -23 -20 -23 -10 0 -25 -6
-32 -14 -8 -9 -26 -12 -49 -9 -30 4 -39 1 -58 -23 -26 -34 -27 -119 -1 -119
11 0 16 13 18 47 4 57 22 76 58 59 33 -15 44 -14 44 4 0 20 36 19 44 -1 3 -9
6 -35 6 -59 0 -58 19 -74 64 -52 33 15 53 52 34 63 -5 3 -16 -3 -24 -15 -29
-41 -45 -27 -42 36 3 55 4 57 36 65 43 11 41 26 -5 30 -31 2 -39 7 -41 26 -3
22 -13 28 -25 15z"/>
<path d="M1987 3913 c-4 -3 -7 -16 -7 -28 0 -17 -8 -24 -31 -29 -38 -7 -38
-43 0 -38 31 5 41 -12 41 -69 0 -62 18 -78 64 -56 33 15 53 52 34 63 -5 3 -16
-3 -24 -15 -29 -41 -45 -27 -42 36 3 55 4 57 36 65 43 11 41 26 -5 30 -31 2
-39 7 -41 26 -3 22 -13 28 -25 15z"/>
<path d="M663 3902 c-58 -6 -107 -87 -84 -138 21 -48 110 -80 150 -55 23 15 2
32 -32 26 -38 -7 -97 25 -97 53 0 18 26 61 44 74 21 15 37 7 47 -22 12 -33 26
-39 35 -15 6 15 -13 73 -25 78 -3 1 -20 1 -38 -1z"/>
<path d="M1267 3883 c-11 -10 13 -33 34 -33 22 0 24 11 7 28 -13 13 -31 16
-41 5z"/>
<path d="M1613 3823 c-34 -16 -57 -56 -48 -84 8 -24 47 -44 101 -54 77 -12 62
22 -16 39 -40 9 -53 21 -46 44 9 27 35 36 56 17 24 -22 32 -19 28 11 -4 35
-36 47 -75 27z"/>
<path d="M2195 3830 c-52 -20 -89 -98 -63 -131 30 -37 89 -49 142 -29 47 17
30 32 -28 25 -47 -6 -57 -4 -75 14 -29 29 -19 52 19 38 50 -19 107 40 68 70
-22 17 -42 21 -63 13z m35 -39 c0 -5 -6 -11 -12 -14 -18 -6 -39 3 -32 14 7 12
44 12 44 0z"/>
<path d="M827 3819 c-22 -13 -47 -61 -47 -93 0 -51 78 -81 144 -56 46 17 31
33 -25 25 -40 -6 -54 -4 -70 11 -31 28 -25 46 15 39 46 -9 76 8 76 44 0 39
-49 55 -93 30z m63 -28 c0 -12 -29 -23 -41 -15 -5 3 -7 10 -4 15 8 12 45 12
45 0z"/>
<path d="M1753 3798 c-29 -33 -33 -53 -17 -77 20 -27 61 -27 91 1 l23 21 23
-21 c24 -23 57 -30 57 -12 0 6 -7 13 -15 17 -9 3 -23 19 -32 36 -23 46 -38 57
-76 57 -22 0 -40 -8 -54 -22z m77 -13 c0 -8 -9 -24 -20 -35 -25 -25 -50 -26
-50 -1 0 21 16 37 45 44 11 2 21 5 23 6 1 0 2 -6 2 -14z"/>
<path d="M1280 3763 c0 -46 14 -73 30 -57 15 15 1 94 -16 94 -9 0 -14 -12 -14
-37z"/>
<path d="M1512 3754 c2 -28 8 -49 16 -52 10 -3 12 8 10 44 -2 28 -8 49 -16 52
-10 3 -12 -8 -10 -44z"/>
<path d="M847 3493 c-3 -10 -9 -34 -12 -53 -4 -19 -16 -52 -27 -72 -21 -36
-18 -73 3 -66 7 2 21 27 33 56 20 50 36 67 36 39 0 -8 8 -21 19 -31 19 -17 32
-10 43 23 2 8 12 -14 21 -48 11 -40 22 -61 32 -61 18 0 18 7 4 48 -6 17 -14
61 -17 99 -6 59 -10 68 -27 68 -14 0 -21 -9 -26 -33 -9 -46 -17 -50 -29 -16
-21 60 -44 80 -53 47z"/>
<path d="M1960 3413 c-25 -33 -26 -118 0 -118 11 0 16 13 18 47 4 59 21 75 62
58 39 -16 52 -4 21 21 -34 28 -75 24 -101 -8z"/>
<path d="M1305 3410 c-17 -19 -19 -19 -31 -2 -16 22 -20 17 -27 -40 -8 -62 7
-70 45 -24 16 20 33 36 38 36 4 0 12 -17 17 -37 4 -20 14 -38 21 -41 11 -3 12
7 6 44 -12 84 -33 104 -69 64z"/>
<path d="M1817 3419 c-22 -13 -47 -61 -47 -93 0 -51 78 -81 144 -56 46 17 31
33 -25 25 -40 -6 -54 -4 -70 11 -31 28 -25 46 15 39 46 -9 76 8 76 44 0 39
-49 55 -93 30z m63 -28 c0 -12 -29 -23 -41 -15 -5 3 -7 10 -4 15 8 12 45 12
45 0z"/>
<path d="M1055 3395 c-27 -26 -32 -64 -13 -83 18 -18 62 -14 90 8 25 19 26 19
43 0 17 -18 55 -28 55 -14 0 3 -10 19 -22 34 -13 16 -31 40 -41 54 -24 35 -78
36 -112 1z m72 -28 c-21 -32 -44 -44 -58 -30 -15 15 3 41 36 53 29 11 38 1 22
-23z"/>
<path d="M1416 3389 c-30 -35 -32 -51 -10 -73 22 -22 56 -20 88 5 l27 22 15
-22 c9 -12 26 -21 40 -21 30 0 30 2 -3 38 -16 16 -36 41 -46 56 -26 38 -77 36
-111 -5z m84 -1 c0 -16 -41 -58 -56 -58 -36 0 -21 44 21 60 28 12 35 12 35 -2z"/>
<path d="M1625 3386 c-14 -14 -25 -29 -25 -34 0 -19 42 -45 71 -45 31 0 31 0
25 -45 -8 -56 -11 -60 -35 -38 -21 19 -41 14 -41 -8 0 -16 42 -46 64 -46 18 0
36 30 36 60 0 11 9 48 21 82 15 45 17 64 9 72 -8 8 -17 4 -32 -16 -18 -26 -56
-37 -71 -21 -12 11 15 33 40 33 33 0 25 24 -10 28 -18 2 -35 -5 -52 -22z"/>
<path d="M1760 3091 c0 -26 -4 -31 -23 -31 -28 0 -47 -17 -40 -36 3 -8 14 -11
32 -8 27 6 28 5 34 -52 8 -73 24 -92 66 -74 19 7 34 22 37 37 9 33 -5 43 -23
16 -9 -13 -21 -23 -28 -23 -13 0 -25 43 -25 87 0 24 4 27 53 37 40 9 33 26
-12 26 -33 0 -40 4 -43 22 -5 35 -28 34 -28 -1z"/>
<path d="M1066 3089 c-75 -10 -124 -29 -116 -44 5 -10 10 -10 75 0 l40 7 1
-76 c0 -42 3 -79 7 -82 17 -17 27 15 27 87 l0 79 53 0 c59 0 72 6 56 27 -13
14 -40 15 -143 2z"/>
<path d="M1583 3038 c-64 -21 -52 -50 39 -90 47 -20 55 -38 17 -38 -11 0 -33
7 -49 15 -28 15 -30 14 -30 -4 0 -11 9 -25 19 -31 28 -14 94 -12 116 4 18 13
18 15 3 38 -9 13 -34 32 -57 43 -23 10 -41 21 -41 24 0 4 15 11 33 16 17 6 31
15 30 20 -3 14 -42 15 -80 3z"/>
<path d="M1247 3022 c-22 -24 -33 -98 -17 -117 19 -23 30 -8 30 39 0 58 16 71
69 54 34 -11 41 -17 43 -42 2 -21 12 -35 31 -46 25 -14 30 -13 56 2 26 14 30
14 35 1 7 -18 32 -11 27 8 -2 8 -3 31 -2 51 1 50 -15 57 -33 14 -29 -70 -94
-69 -81 1 6 32 5 33 -22 31 -15 -1 -38 4 -50 10 -31 17 -67 15 -86 -6z"/>
<path d="M1530 2731 c-5 -11 -10 -38 -10 -60 0 -30 -4 -41 -15 -41 -19 0 -20
-26 -1 -33 8 -3 18 -25 23 -48 11 -57 33 -64 33 -10 l0 41 50 0 c78 0 66 20
-22 36 -36 6 -38 8 -38 43 0 20 5 43 10 51 9 12 18 7 52 -30 22 -25 43 -40 45
-34 2 6 15 9 28 6 14 -2 25 0 25 6 0 15 -28 35 -43 29 -7 -3 -28 10 -47 29
-37 38 -74 44 -90 15z"/>
<path d="M1062 2700 c-45 -11 -70 -36 -83 -83 -9 -34 -8 -44 9 -66 23 -32 89
-57 126 -47 33 8 29 32 -5 29 -38 -3 -63 5 -87 27 -26 24 -23 51 11 88 27 29
43 28 59 -5 26 -54 51 -18 26 37 -7 17 -15 30 -18 29 -3 -1 -20 -5 -38 -9z"/>
<path d="M1202 2614 c-26 -18 -30 -74 -6 -98 25 -25 87 -20 123 10 17 14 31
30 31 36 0 5 -13 23 -29 39 -34 33 -83 39 -119 13z m94 -28 c28 -21 7 -50 -38
-54 -42 -4 -54 15 -32 47 18 25 42 27 70 7z"/>
<path d="M1412 2608 c-19 -19 -22 -20 -22 -5 0 9 -7 17 -15 17 -12 0 -15 -13
-15 -55 0 -64 14 -71 45 -23 29 46 42 45 55 -1 15 -58 34 -53 25 7 -13 84 -32
100 -73 60z"/>
<path d="M1752 2590 c-42 -39 -21 -82 42 -82 l34 0 -5 -41 c-7 -55 -18 -65
-43 -42 -16 15 -23 16 -33 6 -9 -10 -6 -17 16 -37 41 -35 64 -31 76 14 6 20
11 42 11 48 0 7 7 35 17 63 11 37 13 55 6 62 -8 8 -16 4 -28 -15 -19 -29 -75
-38 -75 -12 0 15 21 26 52 26 31 0 15 25 -18 28 -19 2 -37 -4 -52 -18z"/>
<path d="M1670 2588 c0 -42 14 -88 26 -88 15 0 17 20 8 69 -6 29 -34 45 -34
19z"/>
<path d="M3282 4028 c-83 -28 -152 -89 -191 -171 -62 -126 -64 -143 -71 -612
-7 -467 -2 -587 30 -703 40 -145 100 -224 209 -275 l64 -30 286 -9 c353 -12
1059 -4 1161 12 136 21 228 78 275 170 46 91 49 131 49 700 1 462 -1 545 -16
610 -43 195 -126 282 -305 316 -60 11 -204 14 -751 14 -663 -1 -678 -1 -740
-22z m498 -18 c139 -8 251 -8 450 2 403 19 510 17 598 -10 130 -41 188 -119
228 -306 18 -83 20 -206 13 -771 l-5 -410 -26 -55 c-46 -94 -118 -154 -224
-187 -55 -17 -112 -18 -769 -18 l-710 0 -62 29 c-111 51 -168 131 -209 295
l-25 96 5 495 4 496 28 83 c29 87 92 186 138 217 14 9 52 27 83 41 64 27 73
27 483 3z m268 13 c-32 -2 -84 -2 -115 0 -32 2 -6 3 57 3 63 0 89 -1 58 -3z"/>
<path d="M3996 3901 c-4 -5 -9 -31 -13 -58 -3 -26 -13 -53 -21 -59 -13 -9 -12
-13 6 -25 14 -10 22 -28 24 -54 4 -55 31 -55 32 0 l1 39 48 -3 c27 -1 47 2 47
8 0 11 -16 17 -72 27 -36 6 -38 8 -38 44 0 55 20 67 57 33 16 -16 33 -35 36
-43 4 -9 9 -11 12 -4 3 6 19 8 36 6 29 -4 30 -3 17 17 -7 12 -20 20 -29 19 -9
-2 -32 12 -53 30 -35 31 -79 42 -90 23z"/>
<path d="M3767 3873 c-4 -3 -7 -17 -7 -30 0 -16 -6 -23 -20 -23 -10 0 -25 -6
-32 -14 -8 -9 -26 -12 -49 -9 -30 4 -39 1 -58 -23 -26 -34 -27 -119 -1 -119
11 0 16 13 18 47 4 57 22 76 58 59 33 -15 44 -14 44 4 0 20 36 19 44 -1 3 -9
6 -35 6 -59 0 -58 19 -74 64 -52 33 15 53 52 34 63 -5 3 -16 -3 -24 -15 -29
-41 -45 -27 -42 36 3 55 4 57 36 65 43 11 41 26 -5 30 -31 2 -39 7 -41 26 -3
22 -13 28 -25 15z"/>
<path d="M4617 3873 c-4 -3 -7 -16 -7 -28 0 -17 -8 -24 -31 -29 -38 -7 -38
-43 0 -38 31 5 41 -12 41 -69 0 -62 18 -78 64 -56 33 15 53 52 34 63 -5 3 -16
-3 -24 -15 -29 -41 -45 -27 -42 36 3 55 4 57 36 65 43 11 41 26 -5 30 -31 2
-39 7 -41 26 -3 22 -13 28 -25 15z"/>
<path d="M3293 3862 c-58 -6 -107 -87 -84 -138 21 -48 110 -80 150 -55 23 15
2 32 -32 26 -38 -7 -97 25 -97 53 0 18 26 61 44 74 21 15 37 7 47 -22 12 -33
26 -39 35 -15 6 15 -13 73 -25 78 -3 1 -20 1 -38 -1z"/>
<path d="M3897 3843 c-11 -10 13 -33 34 -33 22 0 24 11 7 28 -13 13 -31 16
-41 5z"/>
<path d="M4243 3783 c-34 -16 -57 -56 -48 -84 8 -24 47 -44 101 -54 77 -12 62
22 -16 39 -40 9 -53 21 -46 44 9 27 35 36 56 17 24 -22 32 -19 28 11 -4 35
-36 47 -75 27z"/>
<path d="M4825 3790 c-52 -20 -89 -98 -63 -131 30 -37 89 -49 142 -29 47 17
30 32 -28 25 -47 -6 -57 -4 -75 14 -29 29 -19 52 19 38 50 -19 107 40 68 70
-22 17 -42 21 -63 13z m35 -39 c0 -5 -6 -11 -12 -14 -18 -6 -39 3 -32 14 7 12
44 12 44 0z"/>
<path d="M3457 3779 c-22 -13 -47 -61 -47 -93 0 -51 78 -81 144 -56 46 17 31
33 -25 25 -40 -6 -54 -4 -70 11 -31 28 -25 46 15 39 46 -9 76 8 76 44 0 39
-49 55 -93 30z m63 -28 c0 -12 -29 -23 -41 -15 -5 3 -7 10 -4 15 8 12 45 12
45 0z"/>
<path d="M4383 3758 c-29 -33 -33 -53 -17 -77 20 -27 61 -27 91 1 l23 21 23
-21 c24 -23 57 -30 57 -12 0 6 -7 13 -15 17 -9 3 -23 19 -32 36 -23 46 -38 57
-76 57 -22 0 -40 -8 -54 -22z m77 -13 c0 -8 -9 -24 -20 -35 -25 -25 -50 -26
-50 -1 0 21 16 37 45 44 11 2 21 5 23 6 1 0 2 -6 2 -14z"/>
<path d="M3910 3723 c0 -46 14 -73 30 -57 15 15 1 94 -16 94 -9 0 -14 -12 -14
-37z"/>
<path d="M4142 3714 c2 -28 8 -49 16 -52 10 -3 12 8 10 44 -2 28 -8 49 -16 52
-10 3 -12 -8 -10 -44z"/>
<path d="M3477 3453 c-3 -10 -9 -34 -12 -53 -4 -19 -16 -52 -27 -72 -21 -36
-18 -73 3 -66 7 2 21 27 33 56 20 50 36 67 36 39 0 -8 8 -21 19 -31 19 -17 32
-10 43 23 2 8 12 -14 21 -48 11 -40 22 -61 32 -61 18 0 18 7 4 48 -6 17 -14
61 -17 99 -6 59 -10 68 -27 68 -14 0 -21 -9 -26 -33 -9 -46 -17 -50 -29 -16
-21 60 -44 80 -53 47z"/>
<path d="M4590 3373 c-25 -33 -26 -118 0 -118 11 0 16 13 18 47 4 59 21 75 62
58 39 -16 52 -4 21 21 -34 28 -75 24 -101 -8z"/>
<path d="M3935 3370 c-17 -19 -19 -19 -31 -2 -16 22 -20 17 -27 -40 -8 -62 7
-70 45 -24 16 20 33 36 38 36 4 0 12 -17 17 -37 4 -20 14 -38 21 -41 11 -3 12
7 6 44 -12 84 -33 104 -69 64z"/>
<path d="M4447 3379 c-22 -13 -47 -61 -47 -93 0 -51 78 -81 144 -56 46 17 31
33 -25 25 -40 -6 -54 -4 -70 11 -31 28 -25 46 15 39 46 -9 76 8 76 44 0 39
-49 55 -93 30z m63 -28 c0 -12 -29 -23 -41 -15 -5 3 -7 10 -4 15 8 12 45 12
45 0z"/>
<path d="M3685 3355 c-27 -26 -32 -64 -13 -83 18 -18 62 -14 90 8 25 19 26 19
43 0 17 -18 55 -28 55 -14 0 3 -10 19 -22 34 -13 16 -31 40 -41 54 -24 35 -78
36 -112 1z m72 -28 c-21 -32 -44 -44 -58 -30 -15 15 3 41 36 53 29 11 38 1 22
-23z"/>
<path d="M4046 3349 c-30 -35 -32 -51 -10 -73 22 -22 56 -20 88 5 l27 22 15
-22 c9 -12 26 -21 40 -21 30 0 30 2 -3 38 -16 16 -36 41 -46 56 -26 38 -77 36
-111 -5z m84 -1 c0 -16 -41 -58 -56 -58 -36 0 -21 44 21 60 28 12 35 12 35 -2z"/>
<path d="M4255 3346 c-14 -14 -25 -29 -25 -34 0 -19 42 -45 71 -45 31 0 31 0
25 -45 -8 -56 -11 -60 -35 -38 -21 19 -41 14 -41 -8 0 -16 42 -46 64 -46 18 0
36 30 36 60 0 11 9 48 21 82 15 45 17 64 9 72 -8 8 -17 4 -32 -16 -18 -26 -56
-37 -71 -21 -12 11 15 33 40 33 33 0 25 24 -10 28 -18 2 -35 -5 -52 -22z"/>
<path d="M4390 3051 c0 -26 -4 -31 -23 -31 -28 0 -47 -17 -40 -36 3 -8 14 -11
32 -8 27 6 28 5 34 -52 8 -73 24 -92 66 -74 19 7 34 22 37 37 9 33 -5 43 -23
16 -9 -13 -21 -23 -28 -23 -13 0 -25 43 -25 87 0 24 4 27 53 37 40 9 33 26
-12 26 -33 0 -40 4 -43 22 -5 35 -28 34 -28 -1z"/>
<path d="M3696 3049 c-75 -10 -124 -29 -116 -44 5 -10 10 -10 75 0 l40 7 1
-76 c0 -42 3 -79 7 -82 17 -17 27 15 27 87 l0 79 53 0 c59 0 72 6 56 27 -13
14 -40 15 -143 2z"/>
<path d="M4213 2998 c-64 -21 -52 -50 39 -90 47 -20 55 -38 17 -38 -11 0 -33
7 -49 15 -28 15 -30 14 -30 -4 0 -11 9 -25 19 -31 28 -14 94 -12 116 4 18 13
18 15 3 38 -9 13 -34 32 -57 43 -23 10 -41 21 -41 24 0 4 15 11 33 16 17 6 31
15 30 20 -3 14 -42 15 -80 3z"/>
<path d="M3877 2982 c-22 -24 -33 -98 -17 -117 19 -23 30 -8 30 39 0 58 16 71
69 54 34 -11 41 -17 43 -42 2 -21 12 -35 31 -46 25 -14 30 -13 56 2 26 14 30
14 35 1 7 -18 32 -11 27 8 -2 8 -3 31 -2 51 1 50 -15 57 -33 14 -29 -70 -94
-69 -81 1 6 32 5 33 -22 31 -15 -1 -38 4 -50 10 -31 17 -67 15 -86 -6z"/>
<path d="M4160 2691 c-5 -11 -10 -38 -10 -60 0 -30 -4 -41 -15 -41 -19 0 -20
-26 -1 -33 8 -3 18 -25 23 -48 11 -57 33 -64 33 -10 l0 41 50 0 c78 0 66 20
-22 36 -36 6 -38 8 -38 43 0 20 5 43 10 51 9 12 18 7 52 -30 22 -25 43 -40 45
-34 2 6 15 9 28 6 14 -2 25 0 25 6 0 15 -28 35 -43 29 -7 -3 -28 10 -47 29
-37 38 -74 44 -90 15z"/>
<path d="M3692 2660 c-45 -11 -70 -36 -83 -83 -9 -34 -8 -44 9 -66 23 -32 89
-57 126 -47 33 8 29 32 -5 29 -38 -3 -63 5 -87 27 -26 24 -23 51 11 88 27 29
43 28 59 -5 26 -54 51 -18 26 37 -7 17 -15 30 -18 29 -3 -1 -20 -5 -38 -9z"/>
<path d="M3832 2574 c-26 -18 -30 -74 -6 -98 25 -25 87 -20 123 10 17 14 31
30 31 36 0 5 -13 23 -29 39 -34 33 -83 39 -119 13z m94 -28 c28 -21 7 -50 -38
-54 -42 -4 -54 15 -32 47 18 25 42 27 70 7z"/>
<path d="M4042 2568 c-19 -19 -22 -20 -22 -5 0 9 -7 17 -15 17 -12 0 -15 -13
-15 -55 0 -64 14 -71 45 -23 29 46 42 45 55 -1 15 -58 34 -53 25 7 -13 84 -32
100 -73 60z"/>
<path d="M4382 2550 c-42 -39 -21 -82 42 -82 l34 0 -5 -41 c-7 -55 -18 -65
-43 -42 -16 15 -23 16 -33 6 -9 -10 -6 -17 16 -37 41 -35 64 -31 76 14 6 20
11 42 11 48 0 7 7 35 17 63 11 37 13 55 6 62 -8 8 -16 4 -28 -15 -19 -29 -75
-38 -75 -12 0 15 21 26 52 26 31 0 15 25 -18 28 -19 2 -37 -4 -52 -18z"/>
<path d="M4300 2548 c0 -42 14 -88 26 -88 15 0 17 20 8 69 -6 29 -34 45 -34
19z"/>
<path d="M1155 2080 c-488 -6 -463 -3 -577 -77 -75 -49 -118 -97 -150 -170
-20 -44 -23 -72 -31 -343 -12 -429 -3 -912 19 -976 35 -104 97 -166 218 -218
l71 -30 425 -7 c500 -8 977 -2 1040 13 138 34 240 128 283 262 17 56 19 101
24 506 3 245 1 517 -4 605 -9 142 -13 168 -37 220 -43 95 -120 163 -221 198
-43 15 -547 23 -1060 17z m1060 -46 c97 -34 138 -68 178 -149 58 -115 63 -204
55 -870 -5 -331 -9 -410 -22 -460 -43 -155 -129 -225 -316 -259 -71 -13 -133
-15 -385 -8 -165 4 -435 4 -600 0 -328 -8 -419 -1 -499 36 -69 32 -136 93
-171 157 -29 53 -30 59 -36 244 -9 238 -1 877 12 970 20 146 116 283 228 325
32 11 80 25 107 29 27 5 353 7 724 6 614 -3 680 -5 725 -21z"/>
<path d="M1599 1695 c-63 -23 -99 -45 -99 -60 0 -9 28 -29 65 -46 36 -18 65
-37 65 -44 0 -20 -58 -26 -97 -10 -44 19 -43 19 -43 -5 0 -44 111 -55 156 -16
28 23 28 24 10 51 -10 15 -38 36 -64 47 l-46 21 37 18 c20 11 46 21 59 22 25
4 32 31 8 34 -8 1 -31 -4 -51 -12z"/>
<path d="M1318 1613 c-36 -117 -33 -123 77 -123 47 0 85 4 85 8 0 22 -26 30
-81 25 -73 -7 -79 3 -50 87 24 69 26 90 9 90 -7 0 -25 -39 -40 -87z"/>
<path d="M1139 1679 c-84 -11 -119 -24 -119 -45 0 -13 6 -15 28 -9 15 3 42 9
60 12 l32 5 0 -75 c0 -72 10 -101 26 -76 4 7 6 45 5 85 l-2 74 60 0 c46 0 61
4 61 14 0 27 -32 30 -151 15z"/>
<path d="M1610 1281 c0 -26 -4 -31 -23 -31 -28 0 -47 -17 -40 -36 3 -8 14 -11
32 -8 27 6 28 5 34 -52 8 -73 24 -92 66 -74 19 7 34 22 37 37 9 33 -5 43 -23
16 -9 -13 -21 -23 -28 -23 -13 0 -25 43 -25 87 0 24 4 27 53 37 40 9 33 26
-12 26 -33 0 -40 4 -43 22 -5 35 -28 34 -28 -1z"/>
<path d="M622 1290 c-18 -3 -33 -8 -32 -12 0 -5 0 -12 0 -18 0 -5 9 -10 20
-10 16 0 20 -7 20 -34 0 -58 -11 -94 -31 -99 -10 -3 -19 -12 -19 -21 0 -14 8
-16 43 -11 99 12 134 37 61 43 -36 3 -36 4 -30 40 16 89 16 91 44 94 16 2 27
9 27 18 0 16 -42 20 -103 10z"/>
<path d="M1747 1273 c-11 -10 13 -33 34 -33 22 0 24 11 7 28 -13 13 -31 16
-41 5z"/>
<path d="M940 1226 c-54 -20 -47 -45 23 -79 31 -15 57 -32 57 -37 0 -15 -37
-12 -70 5 -28 15 -30 14 -30 -4 0 -11 9 -25 19 -31 29 -15 97 -12 114 5 13 12
16 9 22 -33 9 -59 23 -88 37 -74 7 7 7 21 -1 43 -20 57 -9 117 14 79 11 -17
61 -11 80 10 23 26 12 64 -27 93 -49 37 -86 13 -103 -68 -6 -26 -8 -28 -17
-12 -5 10 -30 27 -54 37 -52 23 -56 35 -14 44 18 3 30 12 30 21 0 18 -31 19
-80 1z m234 -62 c11 -29 6 -44 -14 -44 -23 0 -35 22 -26 45 7 20 32 19 40 -1z"/>
<path d="M1305 1220 c-52 -20 -89 -98 -63 -131 30 -37 89 -49 142 -29 47 17
30 32 -28 25 -47 -6 -57 -4 -75 14 -29 29 -19 52 19 38 50 -19 107 40 68 70
-22 17 -42 21 -63 13z m35 -39 c0 -5 -6 -11 -12 -14 -18 -6 -39 3 -32 14 7 12
44 12 44 0z"/>
<path d="M1453 1213 c-34 -16 -57 -56 -48 -84 8 -24 47 -44 101 -54 77 -12 62
22 -16 39 -40 9 -53 21 -46 44 9 27 35 36 56 17 24 -22 32 -19 28 11 -4 35
-36 47 -75 27z"/>
<path d="M810 1199 c-11 -20 -12 -20 -25 -2 -18 25 -24 15 -27 -42 -4 -60 12
-68 42 -20 24 39 50 46 50 14 0 -25 17 -59 31 -59 11 0 4 58 -13 103 -12 32
-43 36 -58 6z"/>
<path d="M1842 1204 c-26 -18 -30 -74 -6 -98 25 -25 87 -20 123 10 17 14 31
30 31 36 0 5 -13 23 -29 39 -34 33 -83 39 -119 13z m94 -28 c28 -21 7 -50 -38
-54 -42 -4 -54 15 -32 47 18 25 42 27 70 7z"/>
<path d="M2052 1198 c-19 -19 -22 -20 -22 -5 0 9 -7 17 -15 17 -12 0 -15 -13
-15 -55 0 -64 14 -71 45 -23 29 46 42 45 55 -1 15 -58 34 -53 25 7 -13 84 -32
100 -73 60z"/>
<path d="M1760 1153 c0 -46 14 -73 30 -57 15 15 1 94 -16 94 -9 0 -14 -12 -14
-37z"/>
<path d="M1427 974 c-4 -4 -7 -67 -7 -139 0 -106 3 -135 15 -145 8 -7 15 -9
16 -4 0 5 0 70 -1 144 -1 126 -6 160 -23 144z"/>
<path d="M1023 904 c-3 -8 -1 -20 4 -25 7 -7 7 -28 1 -60 -11 -59 -7 -128 7
-132 6 -1 11 17 13 40 3 45 5 47 82 58 117 18 106 64 -26 110 -82 29 -73 28
-81 9z m144 -71 c4 -12 -94 -29 -104 -19 -4 3 -1 17 5 30 10 23 12 24 53 12
24 -7 45 -18 46 -23z"/>
<path d="M1485 870 c-10 -16 4 -30 31 -30 22 0 23 2 12 20 -14 22 -33 26 -43
10z"/>
<path d="M1603 813 c-34 -16 -57 -56 -48 -84 8 -24 47 -44 101 -54 77 -12 62
22 -16 39 -40 9 -53 21 -46 44 9 27 35 36 56 17 24 -22 32 -19 28 11 -4 35
-36 47 -75 27z"/>
<path d="M1253 808 c-18 -9 -23 -20 -23 -49 0 -48 21 -69 69 -69 47 0 91 32
91 66 0 47 -83 78 -137 52z m88 -28 c40 -22 10 -60 -46 -60 -33 0 -43 25 -20
50 20 22 37 25 66 10z"/>
<path d="M1717 788 c-6 -41 11 -80 41 -93 26 -12 26 -11 7 -65 -8 -23 -15 -51
-15 -62 0 -43 23 -8 54 83 19 52 41 110 50 127 16 30 16 33 -1 39 -9 4 -18 2
-20 -3 -13 -39 -43 -79 -59 -79 -15 0 -19 8 -20 40 0 52 -29 62 -37 13z"/>
<path d="M1502 744 c2 -28 8 -49 16 -52 10 -3 12 8 10 44 -2 28 -8 49 -16 52
-10 3 -12 -8 -10 -44z"/>
<path d="M3290 2047 c-113 -25 -211 -110 -251 -216 -16 -42 -23 -92 -30 -206
-4 -82 -13 -204 -18 -270 -13 -151 -13 -428 0 -520 5 -38 13 -131 18 -207 7
-118 11 -143 35 -192 46 -94 153 -172 266 -195 81 -15 1323 -18 1415 -2 147
25 258 109 327 249 l33 67 0 590 c-1 578 -1 591 -22 643 -41 102 -133 194
-233 234 -55 22 -61 22 -710 23 -360 0 -682 4 -715 7 -38 5 -81 3 -115 -5z
m1455 -41 c136 -40 236 -117 284 -216 25 -54 26 -60 33 -360 10 -411 -3 -845
-28 -920 -36 -107 -152 -194 -319 -238 -78 -21 -93 -21 -730 -17 -624 4 -653
5 -717 25 -37 11 -86 35 -110 53 -52 40 -103 122 -117 189 -7 31 -11 240 -11
568 0 427 3 532 15 592 19 87 60 181 103 229 42 48 125 91 199 104 38 6 305
10 700 9 577 -1 644 -2 698 -18z m-1563 -36 c-50 -36 -95 -95 -118 -156 -9
-24 -19 -43 -21 -41 -7 7 26 86 53 127 25 38 97 99 118 100 5 0 -10 -14 -32
-30z m-175 -998 c-1 -53 -3 -7 -3 103 0 110 2 154 3 97 2 -57 2 -147 0 -200z"/>
<path d="M4219 1665 c-63 -23 -99 -45 -99 -60 0 -9 28 -29 65 -46 36 -18 65
-37 65 -44 0 -20 -58 -26 -97 -10 -44 19 -43 19 -43 -5 0 -44 111 -55 156 -16
28 23 28 24 10 51 -10 15 -38 36 -64 47 l-46 21 37 18 c20 11 46 21 59 22 25
4 32 31 8 34 -8 1 -31 -4 -51 -12z"/>
<path d="M3938 1583 c-36 -117 -33 -123 77 -123 47 0 85 4 85 8 0 22 -26 30
-81 25 -73 -7 -79 3 -50 87 24 69 26 90 9 90 -7 0 -25 -39 -40 -87z"/>
<path d="M3759 1649 c-84 -11 -119 -24 -119 -45 0 -13 6 -15 28 -9 15 3 42 9
60 12 l32 5 0 -75 c0 -72 10 -101 26 -76 4 7 6 45 5 85 l-2 74 60 0 c46 0 61
4 61 14 0 27 -32 30 -151 15z"/>
<path d="M4230 1251 c0 -26 -4 -31 -23 -31 -28 0 -47 -17 -40 -36 3 -8 14 -11
32 -8 27 6 28 5 34 -52 8 -73 24 -92 66 -74 19 7 34 22 37 37 9 33 -5 43 -23
16 -9 -13 -21 -23 -28 -23 -13 0 -25 43 -25 87 0 24 4 27 53 37 40 9 33 26
-12 26 -33 0 -40 4 -43 22 -5 35 -28 34 -28 -1z"/>
<path d="M3242 1260 c-18 -3 -33 -8 -32 -12 0 -5 0 -12 0 -18 0 -5 9 -10 20
-10 16 0 20 -7 20 -34 0 -58 -11 -94 -31 -99 -10 -3 -19 -12 -19 -21 0 -14 8
-16 43 -11 99 12 134 37 61 43 -36 3 -36 4 -30 40 16 89 16 91 44 94 16 2 27
9 27 18 0 16 -42 20 -103 10z"/>
<path d="M4367 1243 c-11 -10 13 -33 34 -33 22 0 24 11 7 28 -13 13 -31 16
-41 5z"/>
<path d="M3560 1196 c-54 -20 -47 -45 23 -79 31 -15 57 -32 57 -37 0 -15 -37
-12 -70 5 -28 15 -30 14 -30 -4 0 -11 9 -25 19 -31 29 -15 97 -12 114 5 13 12
16 9 22 -33 9 -59 23 -88 37 -74 7 7 7 21 -1 43 -20 57 -9 117 14 79 11 -17
61 -11 80 10 23 26 12 64 -27 93 -49 37 -86 13 -103 -68 -6 -26 -8 -28 -17
-12 -5 10 -30 27 -54 37 -52 23 -56 35 -14 44 18 3 30 12 30 21 0 18 -31 19
-80 1z m234 -62 c11 -29 6 -44 -14 -44 -23 0 -35 22 -26 45 7 20 32 19 40 -1z"/>
<path d="M3925 1190 c-52 -20 -89 -98 -63 -131 30 -37 89 -49 142 -29 47 17
30 32 -28 25 -47 -6 -57 -4 -75 14 -29 29 -19 52 19 38 50 -19 107 40 68 70
-22 17 -42 21 -63 13z m35 -39 c0 -5 -6 -11 -12 -14 -18 -6 -39 3 -32 14 7 12
44 12 44 0z"/>
<path d="M4073 1183 c-34 -16 -57 -56 -48 -84 8 -24 47 -44 101 -54 77 -12 62
22 -16 39 -40 9 -53 21 -46 44 9 27 35 36 56 17 24 -22 32 -19 28 11 -4 35
-36 47 -75 27z"/>
<path d="M3430 1169 c-11 -20 -12 -20 -25 -2 -18 25 -24 15 -27 -42 -4 -60 12
-68 42 -20 24 39 50 46 50 14 0 -25 17 -59 31 -59 11 0 4 58 -13 103 -12 32
-43 36 -58 6z"/>
<path d="M4462 1174 c-26 -18 -30 -74 -6 -98 25 -25 87 -20 123 10 17 14 31
30 31 36 0 5 -13 23 -29 39 -34 33 -83 39 -119 13z m94 -28 c28 -21 7 -50 -38
-54 -42 -4 -54 15 -32 47 18 25 42 27 70 7z"/>
<path d="M4672 1168 c-19 -19 -22 -20 -22 -5 0 9 -7 17 -15 17 -12 0 -15 -13
-15 -55 0 -64 14 -71 45 -23 29 46 42 45 55 -1 15 -58 34 -53 25 7 -13 84 -32
100 -73 60z"/>
<path d="M4380 1123 c0 -46 14 -73 30 -57 15 15 1 94 -16 94 -9 0 -14 -12 -14
-37z"/>
<path d="M4047 944 c-4 -4 -7 -67 -7 -139 0 -106 3 -135 15 -145 8 -7 15 -9
16 -4 0 5 0 70 -1 144 -1 126 -6 160 -23 144z"/>
<path d="M3643 874 c-3 -8 -1 -20 4 -25 7 -7 7 -28 1 -60 -11 -59 -7 -128 7
-132 6 -1 11 17 13 40 3 45 5 47 82 58 117 18 106 64 -26 110 -82 29 -73 28
-81 9z m144 -71 c4 -12 -94 -29 -104 -19 -4 3 -1 17 5 30 10 23 12 24 53 12
24 -7 45 -18 46 -23z"/>
<path d="M4105 840 c-10 -16 4 -30 31 -30 22 0 23 2 12 20 -14 22 -33 26 -43
10z"/>
<path d="M4223 783 c-34 -16 -57 -56 -48 -84 8 -24 47 -44 101 -54 77 -12 62
22 -16 39 -40 9 -53 21 -46 44 9 27 35 36 56 17 24 -22 32 -19 28 11 -4 35
-36 47 -75 27z"/>
<path d="M3873 778 c-18 -9 -23 -20 -23 -49 0 -48 21 -69 69 -69 47 0 91 32
91 66 0 47 -83 78 -137 52z m88 -28 c40 -22 10 -60 -46 -60 -33 0 -43 25 -20
50 20 22 37 25 66 10z"/>
<path d="M4337 758 c-6 -41 11 -80 41 -93 26 -12 26 -11 7 -65 -8 -23 -15 -51
-15 -62 0 -43 23 -8 54 83 19 52 41 110 50 127 16 30 16 33 -1 39 -9 4 -18 2
-20 -3 -13 -39 -43 -79 -59 -79 -15 0 -19 8 -20 40 0 52 -29 62 -37 13z"/>
<path d="M4122 714 c2 -28 8 -49 16 -52 10 -3 12 8 10 44 -2 28 -8 49 -16 52
-10 3 -12 -8 -10 -44z"/>
</g>
</svg>
